<?xml version="1.0" encoding="utf-8"?>
<!-- Generator: Adobe Illustrator 21.0.0, SVG Export Plug-In . SVG Version: 6.00 Build 0)  -->
<svg version="1.0" id="Layer_1" xmlns="http://www.w3.org/2000/svg" xmlns:xlink="http://www.w3.org/1999/xlink" x="0px" y="0px"
	 viewBox="0 0 58.5 36.8" enable-background="new 0 0 58.5 36.8" xml:space="preserve">
<g>
	<g>
		<g>
			<path fill="#FFFFFF" d="M6.8,32.6c0.4,0,0.8,0.2,1.1,0.5c0.3,0.3,0.5,0.7,0.5,1.1c0,0.4-0.2,0.8-0.5,1.1
				c-0.3,0.3-0.7,0.5-1.1,0.5c-0.5,0-0.8-0.2-1.1-0.5c-0.3-0.3-0.5-0.7-0.5-1.1c0-0.3,0.1-0.6,0.2-0.8C5.6,33.2,5.8,33,6,32.8
				C6.3,32.7,6.5,32.6,6.8,32.6z M6.8,33.2c-0.3,0-0.5,0.1-0.7,0.3c-0.2,0.2-0.3,0.4-0.3,0.7c0,0.3,0.1,0.6,0.4,0.8
				c0.2,0.2,0.4,0.2,0.6,0.2c0.3,0,0.5-0.1,0.7-0.3c0.2-0.2,0.3-0.4,0.3-0.7c0-0.3-0.1-0.5-0.3-0.7C7.3,33.3,7.1,33.2,6.8,33.2z"/>
			<path fill="#FFFFFF" d="M13.6,32.7h0.6c0.3,0,0.6,0,0.7,0.1c0.1,0.1,0.3,0.2,0.3,0.3c0.1,0.1,0.1,0.3,0.1,0.5
				c0,0.2,0,0.4-0.1,0.5c-0.1,0.1-0.2,0.2-0.4,0.3l0.7,1.3h-0.6l-0.7-1.3h-0.1v1.3h-0.6V32.7z M14.2,33.9h0.2c0.2,0,0.3,0,0.4-0.1
				c0.1,0,0.1-0.1,0.1-0.2c0-0.1,0-0.1-0.1-0.2c0,0-0.1-0.1-0.1-0.1c-0.1,0-0.2,0-0.3,0h-0.2V33.9z"/>
			<path fill="#FFFFFF" d="M23.5,33.2l-0.4,0.4c-0.3-0.3-0.6-0.4-0.9-0.4c-0.3,0-0.5,0.1-0.7,0.3c-0.2,0.2-0.3,0.4-0.3,0.7
				c0,0.3,0.1,0.5,0.3,0.7c0.2,0.2,0.5,0.3,0.8,0.3c0.2,0,0.4,0,0.5-0.1c0.1-0.1,0.2-0.2,0.3-0.4h-0.9v-0.5h1.5l0,0.1
				c0,0.3-0.1,0.5-0.2,0.8c-0.1,0.2-0.3,0.4-0.5,0.5c-0.2,0.1-0.5,0.2-0.8,0.2c-0.3,0-0.6-0.1-0.8-0.2c-0.2-0.1-0.4-0.3-0.6-0.6
				c-0.1-0.3-0.2-0.5-0.2-0.8c0-0.4,0.1-0.8,0.4-1c0.3-0.4,0.7-0.5,1.2-0.5c0.3,0,0.5,0,0.7,0.1C23.1,32.9,23.3,33,23.5,33.2z"/>
			<path fill="#FFFFFF" d="M29.8,32.7h0.6l1.2,3h-0.6l-0.2-0.6h-1.2l-0.2,0.6h-0.6L29.8,32.7z M30.1,33.5l-0.4,1h0.8L30.1,33.5z"/>
			<path fill="#FFFFFF" d="M36.6,32.7h0.6l1.3,2v-2H39v3h-0.6l-1.3-2v2h-0.6V32.7z"/>
			<path fill="#FFFFFF" d="M44.3,32.7h0.6v3h-0.6V32.7z"/>
			<path fill="#FFFFFF" d="M53,33.2l-0.4,0.4c-0.3-0.3-0.6-0.4-0.9-0.4c-0.3,0-0.5,0.1-0.7,0.3c-0.2,0.2-0.3,0.4-0.3,0.7
				c0,0.2,0,0.4,0.1,0.5c0.1,0.2,0.2,0.3,0.4,0.4c0.2,0.1,0.3,0.1,0.5,0.1c0.2,0,0.3,0,0.5-0.1c0.1-0.1,0.3-0.2,0.5-0.3l0.4,0.4
				c-0.2,0.2-0.4,0.4-0.6,0.5c-0.2,0.1-0.4,0.1-0.7,0.1c-0.5,0-0.9-0.1-1.2-0.4c-0.3-0.3-0.5-0.7-0.5-1.1c0-0.3,0.1-0.6,0.2-0.8
				c0.1-0.2,0.3-0.4,0.6-0.6c0.3-0.1,0.5-0.2,0.8-0.2c0.2,0,0.5,0.1,0.7,0.2C52.6,32.9,52.8,33,53,33.2z"/>
		</g>
		<g>
			<path fill="#FFFFFF" d="M40.7,11.3c1.5-2.3,3.9-3.7,6.4-4.7c-2.9,0.4-5.5,2.2-7.2,4.5c-0.6-0.2-1.1-0.3-1.6-0.6
				c-0.6-1.2-1-2.6-1.9-3.7c-0.5-0.9-1.4-1.5-2.2-1.9c1.5,1.6,2.6,3.6,3.2,5.7c-1.2,0.1-2.2,0.7-2.8,1.7c1-0.3,2.1-0.8,3.2-0.6
				c1,0.2,2,0.6,2.7,1.3c0.7,0.8,1.1,2,0.8,3c-0.2,1.3-1.5,2.2-2.8,2.3c-1,0.1-2,0-3-0.1c0,0.9,0,1.7-0.1,2.6
				c-1-1.3-1.8-2.8-3.1-3.8c-0.8-0.7-1.8-0.8-2.8-1.1c1.5,1,3,2.1,3.8,3.8c0.7,1.4,1.2,3,1,4.6c-0.7,0-1.5,0.1-2.4,0.1
				c-0.5-1.6-1.1-3.2-2.4-4.4c-0.7-0.7-1.6-1.2-2.5-1.5c0.7,0.8,1.5,1.6,2,2.6c0.6,1.1,1,2.2,1.2,3.3c-1,0-2.1,0-3.1-0.2
				c-0.3-0.9-0.8-1.7-1.3-2.4c-0.5-0.6-1.2-1-1.8-1.4c0.5,1.1,1,2.1,1.4,3.2c-1.5-0.7-2.7-1.9-3.2-4c0.9-1.9,2-2.9,3.7-4.2
				c-0.4,0.1-0.9,0.3-1.4,0.4c-1.7-3.9-3.7-7.8-6.6-10.9c-1.9-2-4.3-3.7-7.1-4C8.8,0.9,6.8,1,5.4,2.2C4.3,3,3.8,4.4,4,5.7
				c0.4,2.6,2.1,4.6,3.8,6.5c-2.3,0.4-4.8,1.2-6,3.2c-1.1,1.5-1.2,3.7-0.7,5.3c0.7,2.3,2.5,4.3,4.7,5.4c2.7,1.4,5.8,1.5,8.7,0.7
				c2-0.4,3.8-1.4,5.6-2c-0.1,1-0.5,2-1,2.9c1.3-0.1,2.7,0,4,0.4c3,0.6,6.2,0.7,9-0.5c2.3-1,4-3.3,4.3-5.8c0.1-0.9,0.1-1.7,0.1-2.6
				c1.7,0,4,0.1,5.1-1.6c0.9-1.1,1-2.7,0.7-4.1C42.2,12.7,41.4,11.9,40.7,11.3z M25.3,24c0-0.1-0.1-0.2-0.1-0.3
				C25.2,23.8,25.2,23.9,25.3,24z M7.6,10.3C6.5,8.8,5.2,7.1,5.3,5.1c0-1,0.8-1.8,1.6-2.3C8.2,2,9.7,2.1,11.1,2.3
				c2.5,0.5,4.7,2.2,6.4,4c1.4,1.3,2.3,3,3.4,4.6c1,1.7,2,3.4,2.9,5.1c-0.9,0.7-1.8,1.5-2.4,2.5c-0.8-1.3-1.8-2.5-3.2-3.3
				c-2.4-1.6-5.2-2.5-8.1-2.9C8.9,12.1,8.3,11.2,7.6,10.3z M19.8,19.2c-0.6-0.1-1.2-0.4-1.8-0.7c-2.1-1.3-4.3-2.6-6.4-4.1
				c-0.4-0.3-0.8-0.7-1.2-1.1c2.4,0.4,4.5,1.5,6.5,2.8C18.1,16.9,19.3,17.9,19.8,19.2z M19.9,23.9c-3.3,1.8-7.2,2.9-11,2.3
				c-2.5-0.4-4.6-2.1-6-4.2c-0.8-1.5-1.1-3.3-0.5-4.9c0.6-1.7,2.2-2.7,3.7-3.4c1.2-0.3,2.7-0.8,3.7,0.2c3.1,2.7,6.5,5.3,10.4,6.5
				C20.2,21.6,20,22.7,19.9,23.9z M27.2,25C27.2,25,27.2,25,27.2,25S27.2,25,27.2,25z M27.5,25.8C27.5,25.8,27.5,25.8,27.5,25.8
				C27.5,25.8,27.5,25.8,27.5,25.8z M27.6,26.6c0,0,0,0.1,0,0.1C27.6,26.6,27.6,26.6,27.6,26.6z M30.1,24.6c0,0.1,0,0.2,0.1,0.3
				C30.1,24.8,30.1,24.7,30.1,24.6z M30.2,25.4c0,0.1,0,0.2,0,0.3C30.2,25.6,30.2,25.5,30.2,25.4z M30.3,26.1c0,0.1,0,0.2,0,0.3
				C30.3,26.3,30.3,26.2,30.3,26.1z"/>
			<g>
				<path fill="#FFFFFF" d="M47.9,26.1c0,0.1-0.1,0.1-0.2,0.1h-0.2c-0.1,0-0.2,0-0.3,0c-0.2,0.8-1,1.6-2.4,2.4c-1.3,0.7-2.5,1-3.6,1
					c-0.6,0-1-0.1-1.3-0.3c-0.2-0.1-0.3-0.3-0.3-0.6c0-0.4,0.6-0.9,1.7-1.3c1.2-0.5,2.7-0.9,4.7-1.3c-0.1-0.2-0.3-0.4-0.5-0.4
					c-0.2-0.1-0.6-0.1-1.2-0.1h-0.7h-1.2c-0.2,0-0.3,0-0.4,0c-0.3-0.1-0.5-0.2-0.5-0.5c0-0.2,0.1-0.4,0.3-0.6c0,0,0.5-0.3,1.5-0.8
					c0.5-0.3,0.9-0.6,1.2-0.8c0.4-0.4,0.6-0.7,0.6-1.1c0-0.2-0.1-0.4-0.2-0.6c-0.2-0.2-0.4-0.3-0.7-0.3c-0.7,0-1.5,0.4-2.4,1.2
					C40.9,22.9,40,24,39,25.4c-0.3,0.5-0.7,1.2-1.3,2.2c-0.3,0.6-0.5,0.8-0.8,0.8c-0.2,0-0.4-0.2-0.6-0.5c-0.2-0.3-0.3-0.6-0.3-0.8
					c0-0.3,0.1-0.6,0.3-1c0.2-0.3,0.4-0.6,0.8-1c0.3-0.3,0.7-0.7,1.2-1.1c0.2-0.3,0.3-0.6,0.4-1c0.1-0.4,0.2-0.8,0.2-1.1
					c0-0.3,0-0.5-0.1-0.6c-0.1-0.2-0.2-0.3-0.4-0.4c-0.1-0.1-0.2-0.2-0.2-0.2c0-0.1,0.1-0.1,0.2-0.1c0.2,0,0.4,0.2,0.6,0.5
					c0.2,0.3,0.3,0.7,0.3,1.1c0,0.4-0.1,0.8-0.2,1.2c1.3-1,2.3-1.7,3.1-2.2c0.8-0.5,1.5-0.7,2.1-0.7c0.4,0,0.8,0.1,1,0.3
					c0.3,0.2,0.4,0.5,0.4,0.8c0,0.3-0.1,0.7-0.4,1c-0.2,0.2-0.5,0.5-1,0.8c-0.3,0.2-0.7,0.4-1.3,0.8c1.3,0,2.2,0.1,2.8,0.3
					c0.8,0.2,1.2,0.7,1.2,1.3c0,0,0,0.1,0,0.1c0,0.1,0,0.1,0,0.1l0.2,0c0.3,0,0.4,0,0.5,0C47.9,26,47.9,26,47.9,26.1z M45.9,26.7
					v-0.3c-1,0.2-1.8,0.4-2.6,0.7c-0.9,0.3-1.6,0.5-2.1,0.8c-0.6,0.3-0.8,0.6-0.8,0.9c0,0.1,0.1,0.2,0.2,0.3
					c0.1,0.1,0.4,0.2,0.7,0.2c0.8,0,1.8-0.3,2.9-0.9C45.2,27.8,45.8,27.2,45.9,26.7z"/>
			</g>
			<path fill="#FFFFFF" d="M56.4,26c-0.5,0.6-1.1,1-1.7,1.5c-0.5,0.3-0.9,0.7-1.5,0.7c-0.2,0-0.5,0-0.7-0.2c-0.3-0.5-0.3-1.1,0-1.6
				c0.5-0.1,1-0.1,1.5-0.3c0.7-0.3,1.3-0.7,1.9-1.1c0.4-0.3,0.6-0.8,0.7-1.2c0-0.5-0.5-0.8-1-0.8c-1.1,0.1-1.9,0.9-2.6,1.6
				c-0.8,0.7-1.1,1.8-2,2.4c-0.8,0.6-1.6,1.4-2.7,1.2c-0.6-0.3-0.6-1.1-0.2-1.7c0.5-0.2,1.1-0.2,1.6-0.4c0.8-0.3,1.6-0.8,2.1-1.4
				c0.3-0.3,0.5-0.8,0.3-1.3c-0.2-0.5-0.8-0.5-1.3-0.3c-1.1,0.3-1.9,1.1-2.6,1.9c-0.5,0.6-1,1.4-1.1,2.2c-0.1,0.9,1,1.6,1.8,1.4
				c1-0.2,1.8-0.9,2.6-1.5c0.1,0.3,0.1,0.6,0.2,0.8c0.3,0.5,0.9,0.8,1.5,0.7c0.7-0.1,1.3-0.5,1.9-0.8c0.9-0.7,1.9-1.5,2.4-2.6
				C57,25.3,56.7,25.7,56.4,26z M54.7,24c0.4-0.3,1-0.7,1.4-0.2c-0.4,1-1.4,1.7-2.4,2.1c-0.3,0.1-0.6,0.2-1,0.2
				C53.2,25.2,54,24.6,54.7,24z M50.6,23.7c0.3-0.1,0.7-0.4,0.9-0.1c0.1,0.7-0.5,1.1-0.9,1.5c-0.7,0.5-1.4,1-2.3,0.8
				C48.9,25.1,49.7,24.3,50.6,23.7z"/>
		</g>
	</g>
</g>
</svg>
