<?xml version="1.0" encoding="utf-8"?>
<!-- Generator: Adobe Illustrator 21.0.0, SVG Export Plug-In . SVG Version: 6.00 Build 0)  -->
<svg version="1.0" id="Layer_1" xmlns="http://www.w3.org/2000/svg" xmlns:xlink="http://www.w3.org/1999/xlink" x="0px" y="0px"
	 viewBox="0 0 206.4 106.7" enable-background="new 0 0 206.4 106.7" xml:space="preserve">
<g>
	<g>
		<g>
			<g>
				<path fill="#E9C035" d="M90.3,15.8c5.7-6.3,13.3-11.5,22-12.4c5.4-0.2,11.4,0.3,15.8,3.9c3.3,2.5,5.1,6.8,4.3,10.9
					c-1.2,7.9-6.6,14.3-11.6,20.1c7,1.1,14.6,3.6,18.5,10c3.3,4.7,3.8,11.2,2.2,16.3c-2.3,7.1-7.6,13.2-14.3,16.6
					c-8.2,4.2-17.9,4.6-26.7,2.2c-6.1-1.2-11.5-4.2-17.3-6.2c0.4,3.2,1.7,6.2,3,9c-4.1-0.2-8.3,0-12.3,1.2c-9.2,1.9-19,2-27.8-1.6
					C38.9,82.8,33.7,75.7,32.8,68c-0.3-2.6-0.3-5.3-0.4-7.9C27,60,20.1,60.4,16.7,55.3c-2.7-3.5-3.1-8.4-2.2-12.6
					c0.6-3.1,3-5.4,5.2-7.5C15.1,28.3,7.6,23.9,0,20.8c9,1.3,16.8,6.8,22.2,14c1.7-0.6,3.5-1,5-2c2-3.7,3.1-8,5.7-11.4
					c1.6-2.7,4.2-4.5,6.9-6c-4.5,5-8.1,10.9-9.9,17.5c3.5,0.3,6.7,2.1,8.6,5.1c-3.2-1-6.4-2.6-9.8-1.9c-3,0.6-6.1,1.9-8.3,4.1
					c-2.2,2.5-3.5,6.1-2.3,9.3c0.8,4,4.6,6.7,8.5,7c3.1,0.3,6.2-0.1,9.4-0.2c0,2.6,0,5.3,0.2,7.9c3-4,5.4-8.6,9.6-11.6
					c2.4-2,5.6-2.5,8.5-3.4c-4.5,3.2-9.2,6.6-11.6,11.8c-2,4.4-3.7,9.2-3.1,14.1c1.3,2.7,3.7,4.6,6.1,6.2c1.4-6.9,3.3-14.3,8.7-19.3
					c2.1-2.2,4.8-3.6,7.6-4.5c-2.1,2.6-4.6,4.9-6.2,7.9c-3.1,5.8-4.4,11.9-4.4,18.5c2.9,1,5.4,1.2,7.9,1.2
					c0.6-6.3,2.7-12.4,6.5-17.5c1.4-1.9,3.6-3,5.6-4.2c-1.8,4-3.9,7.9-4.8,12.2c-0.7,3.1-0.6,6.3-0.5,9.5c4.5,0,9.2-0.1,13.2-2.4
					c2-6.3,0.4-15.7-2.1-21.7c-2.9-5.9-6-8.9-11.5-13c1.4,0.5,2.8,0.8,4.2,1.2C75.3,37.3,81.1,25.3,90.3,15.8z M91,20
					c-4.3,4-7.2,9.1-10.3,14c-3.2,5.1-6.1,10.4-8.9,15.8c2.9,2.2,5.5,4.7,7.5,7.7c2.5-4,5.7-7.6,9.7-10.1c7.4-4.9,16.1-7.6,24.8-9
					c3.4-0.4,5.4-3.5,7.4-6c3.5-4.7,7.3-10,7-16.2c-0.1-3.1-2.4-5.6-4.9-7.2c-3.8-2.2-8.5-2.2-12.7-1.5C102.9,9.2,96.4,14.4,91,20z
					 M92.4,50.1c-3.5,2.6-7.1,5.5-8.7,9.7c1.9-0.5,3.8-1.1,5.5-2.2c6.6-4.1,13.2-8.1,19.5-12.6c1.4-1,2.5-2.2,3.7-3.4
					C105.2,42.7,98.5,46,92.4,50.1z M114.3,43.5c-9.5,8.3-19.9,16.2-32.1,20.1c0.4,3.5,1,7,1.2,10.6c10.2,5.6,22.1,8.9,33.8,7.1
					c7.7-1.4,14.3-6.4,18.4-12.9c2.6-4.5,3.4-10.2,1.5-15.1c-1.7-5.2-6.7-8.4-11.5-10.5C122.1,41.7,117.4,40.3,114.3,43.5z"/>
			</g>
		</g>
		<path fill="#E9C035" d="M200.1,67.7c-3,3.4-6.6,6.1-10.1,9c-2.9,1.8-5.8,4.2-9.3,4.2c-1.5,0-3.3,0.1-4.5-1c-2-2.8-1.7-6.8,0.1-9.6
			c3-0.6,6.1-0.8,8.9-2c4.1-1.8,8.1-4.1,11.6-7c2.3-1.9,3.7-4.6,4.1-7.5c0.1-3.1-3.1-5-5.9-4.7c-6.6,0.3-11.5,5.3-16,9.5
			c-4.8,4.4-6.8,11.1-12.2,14.9c-4.8,3.5-9.9,8.7-16.4,7.1c-3.6-1.9-3.4-7-1.5-10c3.1-0.9,6.5-1.1,9.5-2.5c4.7-2.1,9.5-4.6,12.9-8.6
			c1.8-2.1,2.7-5.1,1.7-7.7c-1.5-2.8-5.1-3-7.8-2.1c-6.5,1.8-11.5,6.6-15.7,11.7c-3.3,3.8-6.2,8.2-6.9,13.3
			c-0.7,5.7,5.8,9.8,10.9,8.5c6.2-1.1,11-5.5,16-9.1c0.4,1.6,0.6,3.4,1.3,4.9c1.9,3,5.7,4.8,9.2,4.2c4.3-0.5,7.9-3,11.6-5.1
			c5.6-4.4,11.8-9,14.9-15.6C203.5,63.1,202,65.8,200.1,67.7z M189.6,55.1c2.5-1.9,6.2-4.2,8.8-1.3c-2.6,6.2-8.4,10.3-14.4,12.9
			c-1.9,0.8-3.9,0.9-5.9,1.1C180.7,62.6,185.2,58.7,189.6,55.1z M164.6,53.7c1.7-0.8,4.1-2.4,5.7-0.8c0.7,4-3.1,6.9-5.8,9.2
			c-4,2.7-8.6,6.1-13.8,5.2C154.4,61.9,159.1,57.2,164.6,53.7z"/>
		<g>
			<path fill="#4C4C4B" d="M45.8,81.4c0.4-1.9,0.8-3.9,1.4-5.8c-2.9-0.2-5.5-0.4-7.5-0.4C41,77.9,43.4,79.8,45.8,81.4z"/>
			<path fill="#4C4C4B" d="M52.3,75.8c-0.5,2.7-0.8,5.4-0.8,8.2c2.9,1,5.4,1.2,7.9,1.2c0.3-3.4,1.1-6.9,2.4-10.1
				C58.7,75.7,55.5,75.9,52.3,75.8z"/>
			<path fill="#4C4C4B" d="M77.2,61c-1.6,6.5-5.3,10.3-9.9,12.4c-0.2,0.7-0.4,1.5-0.6,2.3c-0.7,3.1-0.6,6.3-0.5,9.5
				c4.5,0,9.2-0.1,13.2-2.4C81.3,76.4,79.7,67,77.2,61z"/>
		</g>
	</g>
	<g>
		<path fill="#4C4C4B" d="M50,99.3c1.1,0,2,0.4,2.7,1.1c0.7,0.7,1.1,1.6,1.1,2.7c0,1.1-0.4,1.9-1.1,2.7c-0.7,0.7-1.6,1.1-2.7,1.1
			c-1.1,0-2-0.4-2.7-1.1c-0.7-0.7-1.1-1.6-1.1-2.7c0-0.7,0.2-1.3,0.5-1.9c0.3-0.6,0.8-1.1,1.4-1.4C48.7,99.4,49.4,99.3,50,99.3z
			 M50.1,100c-0.5,0-1,0.1-1.5,0.4c-0.5,0.3-0.9,0.7-1.1,1.1c-0.3,0.5-0.4,1-0.4,1.6c0,0.9,0.3,1.6,0.9,2.2c0.6,0.6,1.3,0.9,2.1,0.9
			c0.6,0,1.1-0.1,1.6-0.4c0.5-0.3,0.8-0.6,1.1-1.1c0.3-0.5,0.4-1,0.4-1.6c0-0.6-0.1-1.1-0.4-1.6c-0.3-0.5-0.6-0.8-1.1-1.1
			C51.1,100.1,50.6,100,50.1,100z"/>
		<path fill="#4C4C4B" d="M66.4,99.5h1.4c0.8,0,1.3,0,1.6,0.1c0.4,0.1,0.8,0.3,1,0.6c0.3,0.3,0.4,0.7,0.4,1.2c0,0.4-0.1,0.7-0.3,1
			c-0.2,0.3-0.4,0.5-0.8,0.7c-0.3,0.2-0.8,0.2-1.4,0.2l2.6,3.3h-0.9l-2.6-3.3h-0.4v3.3h-0.7V99.5z M67.1,100.2v2.4l1.2,0
			c0.5,0,0.8,0,1.1-0.1c0.2-0.1,0.4-0.2,0.5-0.4c0.1-0.2,0.2-0.4,0.2-0.7c0-0.2-0.1-0.5-0.2-0.7c-0.1-0.2-0.3-0.3-0.5-0.4
			c-0.2-0.1-0.6-0.1-1.1-0.1H67.1z"/>
		<path fill="#4C4C4B" d="M90.4,100.7l-0.6,0.5c-0.4-0.4-0.8-0.7-1.3-0.9c-0.5-0.2-0.9-0.3-1.4-0.3c-0.6,0-1.1,0.1-1.6,0.4
			c-0.5,0.3-0.9,0.7-1.2,1.1c-0.3,0.5-0.4,1-0.4,1.5c0,0.5,0.1,1.1,0.4,1.5c0.3,0.5,0.7,0.9,1.2,1.2c0.5,0.3,1.1,0.4,1.7,0.4
			c0.7,0,1.4-0.2,1.9-0.6c0.5-0.4,0.8-1,0.9-1.6h-2.3v-0.7h3.1c0,1.1-0.3,2-1,2.7c-0.7,0.7-1.5,1-2.6,1c-1.3,0-2.4-0.5-3.2-1.4
			c-0.6-0.7-0.9-1.5-0.9-2.4c0-0.7,0.2-1.3,0.5-1.9c0.3-0.6,0.8-1,1.4-1.4c0.6-0.3,1.3-0.5,2-0.5c0.6,0,1.2,0.1,1.7,0.3
			C89.4,99.8,89.9,100.2,90.4,100.7z"/>
		<path fill="#4C4C4B" d="M106.2,99.5l3.4,7.2h-0.8l-1.1-2.4h-3.1l-1.1,2.4h-0.8l3.4-7.2H106.2z M106.1,101l-1.2,2.6h2.5L106.1,101z
			"/>
		<path fill="#4C4C4B" d="M121.7,106.7v-7.2h0.2l4.8,5.5v-5.5h0.7v7.2h-0.2l-4.8-5.5v5.5H121.7z"/>
		<path fill="#4C4C4B" d="M140,99.5h0.7v7.2H140V99.5z"/>
		<path fill="#4C4C4B" d="M160.2,100.8l-0.6,0.4c-0.3-0.4-0.7-0.7-1.1-0.9c-0.4-0.2-0.9-0.3-1.4-0.3c-0.6,0-1.1,0.1-1.6,0.4
			c-0.5,0.3-0.9,0.6-1.1,1.1c-0.3,0.5-0.4,1-0.4,1.6c0,0.9,0.3,1.6,0.9,2.2c0.6,0.6,1.4,0.9,2.3,0.9c1,0,1.9-0.4,2.5-1.2l0.6,0.4
			c-0.4,0.5-0.8,0.8-1.3,1.1c-0.5,0.2-1.1,0.4-1.8,0.4c-1.3,0-2.3-0.4-3-1.3c-0.6-0.7-0.9-1.6-0.9-2.6c0-1.1,0.4-1.9,1.1-2.7
			c0.7-0.7,1.7-1.1,2.8-1.1c0.7,0,1.3,0.1,1.8,0.4C159.4,99.9,159.8,100.3,160.2,100.8z"/>
	</g>
</g>
</svg>
