<svg xmlns="http://www.w3.org/2000/svg" xmlns:xlink="http://www.w3.org/1999/xlink" viewBox="0 0 56.69 34.91"><defs><style>.cls-1{fill:url(#linear-gradient);}.cls-2{fill:url(#linear-gradient-2);}.cls-3{fill:url(#linear-gradient-3);}.cls-4{fill:url(#linear-gradient-4);}.cls-5{fill:url(#linear-gradient-5);}.cls-6{fill:url(#linear-gradient-6);}.cls-7{fill:url(#linear-gradient-7);}.cls-8{fill:url(#linear-gradient-8);}.cls-9{fill:url(#linear-gradient-9);}.cls-10{fill:url(#linear-gradient-10);}</style><linearGradient id="linear-gradient" x1="5.26" y1="31.95" x2="6.85" y2="34.71" gradientUnits="userSpaceOnUse"><stop offset="0.07" stop-color="#e5a735"/><stop offset="0.17" stop-color="#fff57d"/><stop offset="0.39" stop-color="#e29e2f"/><stop offset="0.56" stop-color="#fde973"/><stop offset="0.68" stop-color="#e9b23e"/><stop offset="0.88" stop-color="#f7da64"/><stop offset="1" stop-color="#e5a735"/></linearGradient><linearGradient id="linear-gradient-2" x1="12.73" y1="31.87" x2="14.53" y2="34.99" xlink:href="#linear-gradient"/><linearGradient id="linear-gradient-3" x1="20.59" y1="31.92" x2="22.2" y2="34.71" xlink:href="#linear-gradient"/><linearGradient id="linear-gradient-4" x1="28.13" y1="32.31" x2="29.88" y2="35.34" xlink:href="#linear-gradient"/><linearGradient id="linear-gradient-5" x1="36.1" y1="31.66" x2="38.02" y2="34.99" xlink:href="#linear-gradient"/><linearGradient id="linear-gradient-6" x1="43.13" y1="32.06" x2="44.58" y2="34.58" xlink:href="#linear-gradient"/><linearGradient id="linear-gradient-7" x1="50.09" y1="31.93" x2="51.7" y2="34.72" xlink:href="#linear-gradient"/><linearGradient id="linear-gradient-8" x1="13.54" y1="-3.91" x2="31.33" y2="26.89" xlink:href="#linear-gradient"/><linearGradient id="linear-gradient-9" x1="37.92" y1="19.47" x2="43" y2="28.27" xlink:href="#linear-gradient"/><linearGradient id="linear-gradient-10" x1="49.56" y1="22.25" x2="52.73" y2="27.75" xlink:href="#linear-gradient"/></defs><title>logo</title><g id="Слой_2" data-name="Слой 2"><g id="Layer_1" data-name="Layer 1"><path class="cls-1" d="M6.06,31.73a1.51,1.51,0,0,1,1.11.46,1.56,1.56,0,0,1,.46,1.13,1.53,1.53,0,0,1-.46,1.12,1.5,1.5,0,0,1-1.11.46,1.5,1.5,0,0,1-1.13-.47,1.56,1.56,0,0,1-.45-1.12,1.58,1.58,0,0,1,.21-.8,1.58,1.58,0,0,1,1.37-.79Zm0,.56a1,1,0,0,0-.71.29,1,1,0,0,0-.29.74,1,1,0,0,0,.36.8,1,1,0,0,0,.64.23.94.94,0,0,0,.7-.3,1.07,1.07,0,0,0,0-1.46A1,1,0,0,0,6.05,32.29Z"/><path class="cls-2" d="M12.85,31.81h.61a2,2,0,0,1,.71.09.72.72,0,0,1,.34.3.88.88,0,0,1,.13.49.84.84,0,0,1-.14.5.85.85,0,0,1-.43.3l.72,1.35h-.63l-.68-1.28h-.05v1.28h-.58ZM13.42,33h.18a.72.72,0,0,0,.38-.07.27.27,0,0,0,.1-.24.29.29,0,0,0-.05-.17.28.28,0,0,0-.14-.11,1,1,0,0,0-.31,0h-.16Z"/><path class="cls-3" d="M22.7,32.3l-.41.4a1.19,1.19,0,0,0-.9-.41,1,1,0,0,0-.75.3,1,1,0,0,0-.3.72,1,1,0,0,0,.31.74,1.07,1.07,0,0,0,.78.3,1,1,0,0,0,.5-.12.92.92,0,0,0,.33-.39h-.88V33.3h1.53v.13a1.47,1.47,0,0,1-.21.75,1.41,1.41,0,0,1-.53.54,1.5,1.5,0,0,1-.77.19,1.7,1.7,0,0,1-.84-.2,1.52,1.52,0,0,1-.59-.58,1.64,1.64,0,0,1-.21-.82,1.51,1.51,0,0,1,.4-1,1.57,1.57,0,0,1,1.23-.53,1.88,1.88,0,0,1,.74.15A1.72,1.72,0,0,1,22.7,32.3Z"/><path class="cls-4" d="M29,31.81h.58l1.16,3h-.6l-.24-.62H28.69l-.25.63h-.6Zm.29.8-.41,1h.81Z"/><path class="cls-5" d="M35.85,31.81h.55l1.3,2v-2h.58v3h-.56l-1.29-2v2h-.58Z"/><path class="cls-6" d="M43.57,31.81h.57v3h-.57Z"/><path class="cls-7" d="M52.22,32.34l-.4.38a1.25,1.25,0,0,0-.93-.43,1,1,0,0,0-1,1,1.1,1.1,0,0,0,.13.54,1,1,0,0,0,.38.37,1.06,1.06,0,0,0,.53.13,1.14,1.14,0,0,0,.46-.09,1.7,1.7,0,0,0,.46-.34l.39.41a2.16,2.16,0,0,1-.63.46,1.76,1.76,0,0,1-.68.13,1.57,1.57,0,0,1-1.16-.45,1.68,1.68,0,0,1-.24-2,1.5,1.5,0,0,1,.59-.56,1.63,1.63,0,0,1,.82-.21,1.76,1.76,0,0,1,1.32.61Z"/><path class="cls-8" d="M39.89,10.36a13.7,13.7,0,0,1,6.41-4.71,11.3,11.3,0,0,0-7.23,4.54,8.49,8.49,0,0,1-1.63-.65,23.78,23.78,0,0,0-1.86-3.7,5.82,5.82,0,0,0-2.23-1.95,14.16,14.16,0,0,1,3.22,5.69,3.67,3.67,0,0,0-2.81,1.67,6.34,6.34,0,0,1,3.2-.62A5.39,5.39,0,0,1,39.67,12a3.14,3.14,0,0,1,.75,3,3,3,0,0,1-2.78,2.29,22.45,22.45,0,0,1-3-.07c0,.86,0,1.72-.08,2.58-1-1.31-1.76-2.81-3.13-3.76a7.11,7.11,0,0,0-2.78-1.1,10.21,10.21,0,0,1,3.77,3.83,8.63,8.63,0,0,1,1,4.58c-.66,0-1.5.08-2.44.14a9.15,9.15,0,0,0-2.38-4.39,5.83,5.83,0,0,0-2.48-1.45,14.8,14.8,0,0,1,2,2.57,11.82,11.82,0,0,1,1.18,3.34,15,15,0,0,1-3.08-.24,10.23,10.23,0,0,0-1.33-2.4A5.72,5.72,0,0,0,23,19.54a27.93,27.93,0,0,1,1.37,3.22,5.62,5.62,0,0,1-3.22-4,10.81,10.81,0,0,1,3.72-4.24c-.45.15-.9.28-1.36.4C21.83,11,19.91,7.11,16.92,4A11.58,11.58,0,0,0,9.78,0,7.6,7.6,0,0,0,4.65,1.29,3.69,3.69,0,0,0,3.25,4.85C3.65,7.41,5.38,9.48,7,11.39c-2.26.36-4.76,1.18-6,3.25a6.21,6.21,0,0,0-.72,5.31A9.26,9.26,0,0,0,5,25.33a12.13,12.13,0,0,0,8.69.72,44.63,44.63,0,0,0,5.64-2,9.72,9.72,0,0,1-1,2.94,11.92,11.92,0,0,1,4,.39,15.32,15.32,0,0,0,9-.53A7.46,7.46,0,0,0,35.65,21c.11-.86.09-1.71.13-2.57,1.75,0,4,.08,5.1-1.55a5,5,0,0,0,.72-4.1A4.67,4.67,0,0,0,39.89,10.36ZM24.5,23.09l-.09-.32ZM6.85,9.45C5.73,7.91,4.47,6.2,4.57,4.19A3,3,0,0,1,6.15,1.87a6.37,6.37,0,0,1,4.14-.5,12.87,12.87,0,0,1,6.41,4A22.23,22.23,0,0,1,20.06,10c1,1.67,2,3.39,2.89,5.14a11.2,11.2,0,0,0-2.44,2.5,9.81,9.81,0,0,0-3.16-3.3,20.4,20.4,0,0,0-8.06-2.92C8.16,11.26,7.5,10.26,6.85,9.45Zm12.21,8.87a5.61,5.61,0,0,1-1.79-.71c-2.14-1.33-4.3-2.63-6.35-4.1a9.29,9.29,0,0,1-1.2-1.1,16.37,16.37,0,0,1,6.51,2.76A7.62,7.62,0,0,1,19.06,18.32ZM19.16,23a17.48,17.48,0,0,1-11,2.31,9.23,9.23,0,0,1-6-4.2,5.73,5.73,0,0,1-.48-4.9A6.27,6.27,0,0,1,5.4,12.81c1.19-.34,2.73-.8,3.71.22,3.1,2.71,6.48,5.27,10.44,6.53C19.43,20.71,19.22,21.85,19.16,23Zm7.32,1.12h0Zm.21.78,0,.06Zm.16.77,0,.12Zm2.46-1.93.05.32Zm.11.73c0,.1,0,.2,0,.3C29.45,24.67,29.43,24.57,29.42,24.47Zm.07.78,0,.25Z"/><path class="cls-9" d="M47.15,25.2q0,.13-.25.13h-.25a1.47,1.47,0,0,0-.34,0,4.33,4.33,0,0,1-2.43,2.37,7.94,7.94,0,0,1-3.65,1A2.36,2.36,0,0,1,39,28.5a.68.68,0,0,1-.35-.59q0-.65,1.73-1.35a30.18,30.18,0,0,1,4.71-1.33.75.75,0,0,0-.46-.43,5.06,5.06,0,0,0-1.15-.08H41.57a2.16,2.16,0,0,1-.37,0c-.35-.06-.52-.24-.52-.54a.78.78,0,0,1,.35-.6l1.48-.81A7.07,7.07,0,0,0,43.69,22a1.49,1.49,0,0,0,.6-1.11.8.8,0,0,0-.23-.57,1,1,0,0,0-.73-.3A3.88,3.88,0,0,0,41,21.23a18.36,18.36,0,0,0-2.72,3.26A25.26,25.26,0,0,0,37,26.71q-.45.83-.75.83c-.18,0-.37-.15-.56-.45a1.51,1.51,0,0,1-.3-.8,1.94,1.94,0,0,1,.31-1,6.08,6.08,0,0,1,.82-1q.45-.47,1.15-1.12a5,5,0,0,0,.4-1,4.1,4.1,0,0,0,.16-1.08,1.4,1.4,0,0,0-.13-.64,1.22,1.22,0,0,0-.38-.42.34.34,0,0,1-.16-.24c0-.08.05-.12.16-.12s.42.15.62.46a2,2,0,0,1,.35,1.13,3.93,3.93,0,0,1-.18,1.16,24.17,24.17,0,0,1,3.12-2.2,4.52,4.52,0,0,1,2.13-.68,1.58,1.58,0,0,1,1,.3,1,1,0,0,1,.38.81,1.49,1.49,0,0,1-.4,1,4.74,4.74,0,0,1-1,.82c-.26.17-.68.42-1.25.75a10.26,10.26,0,0,1,2.77.27q1.18.37,1.18,1.34v.27h.19a2.82,2.82,0,0,1,.49,0S47.15,25.13,47.15,25.2Zm-2,.56v-.26q-1.48.31-2.6.65a10.45,10.45,0,0,0-2.08.81q-.84.46-.84.93a.4.4,0,0,0,.16.31,1,1,0,0,0,.68.19,6.17,6.17,0,0,0,2.88-.89Q45,26.59,45.14,25.76Z"/><path class="cls-10" d="M55.65,25.15A13.92,13.92,0,0,1,54,26.63a3.11,3.11,0,0,1-1.54.69,1.09,1.09,0,0,1-.74-.16,1.44,1.44,0,0,1,0-1.57,7.5,7.5,0,0,0,1.46-.33,7.77,7.77,0,0,0,1.9-1.14,2,2,0,0,0,.68-1.23.84.84,0,0,0-1-.77,4.47,4.47,0,0,0-2.63,1.56c-.78.73-1.11,1.83-2,2.44s-1.62,1.43-2.7,1.18a1.18,1.18,0,0,1-.24-1.65,10.64,10.64,0,0,0,1.56-.41,5.82,5.82,0,0,0,2.12-1.42,1.28,1.28,0,0,0,.28-1.27,1.05,1.05,0,0,0-1.29-.35,5.31,5.31,0,0,0-2.58,1.92,4.21,4.21,0,0,0-1.13,2.19A1.44,1.44,0,0,0,48,27.7a6.93,6.93,0,0,0,2.63-1.49,3.87,3.87,0,0,0,.22.81,1.5,1.5,0,0,0,1.51.69,5.35,5.35,0,0,0,1.91-.84,7.63,7.63,0,0,0,2.44-2.57C56.21,24.38,56,24.82,55.65,25.15Zm-1.73-2.08c.41-.31,1-.69,1.45-.22A4.32,4.32,0,0,1,53,25a3,3,0,0,1-1,.19A6.84,6.84,0,0,1,53.92,23.07Zm-4.11-.23c.28-.13.67-.39.94-.12.12.66-.51,1.14-.95,1.52a3.19,3.19,0,0,1-2.26.85A8,8,0,0,1,49.81,22.84Z"/></g></g></svg>