<svg xmlns="http://www.w3.org/2000/svg" xmlns:xlink="http://www.w3.org/1999/xlink" viewBox="0 0 133.83 86.8"><defs><style>.cls-1,.cls-12{fill:none;}.cls-2{fill:#deebee;}.cls-3{fill:#cf824c;}.cls-4{fill:#dea547;}.cls-5{fill:#e9bd5f;opacity:0.72;}.cls-6{fill:#83c3bd;}.cls-13,.cls-7{fill:#424343;}.cls-8{fill:#0f1511;}.cls-9{clip-path:url(#clip-path);}.cls-10{fill:#d86956;}.cls-11{fill:#b35c4c;}.cls-12{stroke:#5a3a3b;stroke-linecap:round;stroke-linejoin:round;stroke-width:0.75px;opacity:0.43;}.cls-13{fill-rule:evenodd;}</style><clipPath id="clip-path"><path class="cls-1" d="M53.92,36.65c.86-1.12,5.5-1.79,11.58,3.85,6.25,5.8,4,8.33,4,8.33s-3.26,4.26-11.75-4C52.29,39.52,53.06,37.77,53.92,36.65Z"/></clipPath></defs><title>logo</title><g id="Слой_2" data-name="Слой 2"><g id="Слой_1-2" data-name="Слой 1"><ellipse class="cls-2" cx="66.92" cy="46.3" rx="66.92" ry="40.5"/><ellipse class="cls-3" cx="66.92" cy="43.21" rx="66.92" ry="40.5"/><ellipse class="cls-4" cx="66.92" cy="40.5" rx="66.92" ry="40.5"/><path class="cls-5" d="M6.14,23.56C17,37,39.86,46.3,66.29,46.3c27,0,50.18-9.65,60.78-23.56C116.2,9.28,93.35,0,66.92,0,40,0,16.74,9.65,6.14,23.56Z"/><path class="cls-6" d="M96.9,66.43a4.48,4.48,0,0,1-3.1-1.24c-2-1.93-4.17-3.77-6.37-5.49a8.91,8.91,0,0,0-3.56-2c-1.38-.16-3.3,1-4.82,2.08l-.53.37c-2.4,1.66-5.39,3.73-9.15,4.13-4.9.53-9.14-1.93-12.29-4.13a74.13,74.13,0,0,1-13.41-12,4.5,4.5,0,0,1,6.78-5.92A65.12,65.12,0,0,0,62.22,52.76c1.86,1.3,4.25,2.77,6.17,2.56,1.49-.16,3.19-1.34,5-2.58l.56-.38c3-2.06,6.65-4.1,11-3.6,3.21.37,5.77,2.07,8.05,3.85,2.44,1.9,4.81,3.94,7.05,6.07a4.5,4.5,0,0,1-3.1,7.76Z"/><path class="cls-7" d="M37.83,52s-1.23,8.67.67,11,12,1.33,12.67,1.17,6.5-2.33-3.17-9.33S37.83,52,37.83,52Z"/><path class="cls-8" d="M102.33,47.71A14.38,14.38,0,0,1,104,54.5c0,4-4.5.75-6.67-1s-8.5-6.21-4.5-7S102.33,47.71,102.33,47.71Z"/><path class="cls-8" d="M89.86,66.9c-1,1.67-3.61,1.31-6.22-.27s-3.84-4.18-2.9-5.88c1.3-2.36,3.75-.88,6.36.71S90.87,65.24,89.86,66.9Z"/><path class="cls-3" d="M53.92,36.65c1.23-.7,4,2.38,11.58,5.65,6.48,2.78,4.4,7.75,4.4,7.75s-3.32,4.48-12.15-3.42C51.67,41.19,51.94,37.77,53.92,36.65Z"/><g class="cls-9"><path class="cls-10" d="M53.52,36.33c.86-1.12,5.9-1.48,12,4.17,6.25,5.8,4,8.33,4,8.33s-3.58,4.57-11.75-4C52.87,39.71,52.66,37.46,53.52,36.33Z"/><path class="cls-11" d="M51.29,34.71l2.23,3.5s5.09-.17,8,2.29A96.86,96.86,0,0,1,69,47.58c1.13,1.28,5,4.25,2.94-1.75s-4.56-10-11.06-11.12S51.29,34.71,51.29,34.71Z"/><path class="cls-12" d="M53.52,38.21a12.25,12.25,0,0,1,8,2.29,27.83,27.83,0,0,1,8,8.33"/></g><path class="cls-7" d="M61,38.64a.93.93,0,0,1-.66-.24.77.77,0,0,1-.26-.59.75.75,0,0,1,.26-.59,1.08,1.08,0,0,1,1.33,0,.75.75,0,0,1,.26.59.77.77,0,0,1-.26.6A1,1,0,0,1,61,38.64Zm.77,4.24a.71.71,0,0,0,.16.5.54.54,0,0,0,.42.17l.26,0,.26-.05v1.12a5.72,5.72,0,0,1-.61.12,4.53,4.53,0,0,1-.67,0,1.52,1.52,0,0,1-.58-.11,1.23,1.23,0,0,1-.45-.31,1.39,1.39,0,0,1-.29-.48,1.89,1.89,0,0,1-.1-.64V39.45h1.59Z"/><path class="cls-7" d="M64.49,40.62a.93.93,0,0,1-.66-.24.77.77,0,0,1-.26-.59.75.75,0,0,1,.26-.59,1.08,1.08,0,0,1,1.33,0,.75.75,0,0,1,.26.59.77.77,0,0,1-.26.6A1,1,0,0,1,64.49,40.62Zm.77,4.24a.71.71,0,0,0,.16.5.54.54,0,0,0,.42.17l.26,0,.26-.05v1.12a5.72,5.72,0,0,1-.61.12,4.53,4.53,0,0,1-.67,0,1.52,1.52,0,0,1-.58-.11,1.23,1.23,0,0,1-.45-.31,1.39,1.39,0,0,1-.29-.48,1.89,1.89,0,0,1-.1-.64V41.44h1.59Z"/><path class="cls-7" d="M57.57,36.16a.93.93,0,0,1-.66-.24.77.77,0,0,1-.26-.59.75.75,0,0,1,.26-.59,1.08,1.08,0,0,1,1.33,0,.75.75,0,0,1,.26.59.77.77,0,0,1-.26.6A1,1,0,0,1,57.57,36.16Zm.77,4.24a.71.71,0,0,0,.16.5.54.54,0,0,0,.42.17l.26,0,.26-.05v1.12a5.72,5.72,0,0,1-.61.12,4.53,4.53,0,0,1-.67,0,1.52,1.52,0,0,1-.58-.11,1.23,1.23,0,0,1-.45-.31,1.39,1.39,0,0,1-.29-.48,1.89,1.89,0,0,1-.1-.64V37h1.59Z"/><path class="cls-13" d="M19.12,40.73,17.48,38l-.26-.53L17,37l-.19-.39-.13-.32-.13-.3-.11-.34-.11-.38-.11-.39-.09-.36-.06-.34L16,33.86v-.6L16,33l.06-.26.09-.24.08-.17.09-.13.11-.11.09-.08.13-.06.13,0H17l.15,0,.23.08.23.11.41.3.36.38.28.43.11.23.09.26.11.3.11.34.11.38.11.41.13.45.11.51.19.73.19.66.19.58.19.51.85.13.75.09.7,0,.62,0,.32,0,.34,0,.38,0,.41,0,.94-.13.86-.19.51-.13.47-.15.43-.17.39-.17.36-.19.34-.19.28-.21.26-.21.15-.11.11-.08.11,0h.08l.13.08.13.11.11.15.09.21.17.32.11.34.08.34,0,.36v.36l0,.36-.09.34-.11.32-.28.56-.38.51-.43.45-.53.39-.58.32-.64.24-.68.17-.73.08-.88,0-1-.06-1-.11-1.07-.21L22,42.35l-.43-.13,0,0,.24.28.23.26.19.21.19.17.21.19.28.23.34.28.41.32.54.41.49.39.39.34.32.32.28.3.23.32.19.3.15.32.21.6.13.62,0,.3v.28l0,.23-.06.21-.08.11-.08.09-.11.09-.15.06-.15,0-.17,0-.15,0-.17,0-.17-.06-.13-.06-1.94-1.15-2-1.22-1-.62-.92-.6-.9-.58-.88-.6L16.77,44,16,43.5,15.34,43l-.6-.47-.28-.23-.24-.19L14,41.92l-.19-.17-.17-.15-.13-.13-.11-.13-.08-.09L13.2,41l-.08-.26-.06-.3,0-.34,0-.36,0-.34.09-.34.11-.34.13-.26.13-.23.15-.17.13-.13.15-.08.17,0h.19l.21.06.19.08.24.13.34.19.39.26.45.3.54.38.6.43.68.49.11.08.15.11.17.11.21.15.21.15.17.13.15.11.11.08.08,0Zm0,0,15.09-5.52-.21.17-.23.11-.24.09-.3,0-.32,0-.3,0-.3-.06L32,35.49l-.28-.09-.32-.15-.32-.17-.34-.23L30,34.29l-.77-.68-.75-.77L27.72,32l-.36-.45L27,31.09l-.28-.41-.24-.39-.21-.38-.17-.36L26,29.23l-.09-.32,0-.24,0-.24.09-.24.17-.23.23-.21.28-.15.32-.08.36,0,.38.06.39.13.39.19.39.24.62.45.62.51.64.58.66.66.68.71.66.77.64.79.62.83.23.34.15.3.08.28,0,.24,0,.17-.06.15-.21.28Zm0,0-8.57-7.4-.19.17-.19.11-.21.08-.23,0-.23,0-.23-.06L24.13,28l-.26-.15-.24-.21-.26-.24-.24-.3-.24-.32-.21-.32-.17-.32-.11-.28-.06-.28,0-.24,0-.23.11-.21.17-.23.19-.19.19-.13.21-.09.19,0,.21,0,.23.06.24.11.26.15.32.24.28.24.26.28.23.28.19.3.15.3.09.3.06.3v.28l0,.24-.08.23-.13.21Zm0,0,10.05-6.67-.09-.36-.08-.26-.06-.23,0-.19,0-.15,0-.11.06-.11.08-.11.11-.09.19-.11.23,0,.24,0,.26.07.28.13.3.21.32.28.36.32.38.41.28.38.21.38.15.39.15.58.13.7.13.79.09.83.08.88.06.92,0,.81v.7l0,.62-.08.51-.09.43-.13.34-.17.28-.19.19-.21.13-.21.09-.23.06-.24,0-.24,0-.26,0-.26-.09-.28-.13-.39-.19-.41-.23-.45-.24-.45-.28L34.32,29l-.88-.66-.83-.7-.77-.71-.47-.49L31,26l-.34-.45-.26-.41-.19-.39-.11-.36L30,24l0-.26.09-.19.11-.17.13-.17.17-.13.43-.28.23-.11.23-.07.24-.08.23,0,.23,0,.23,0,.36.07.36.15.19.11.23.17.26.21.26.24.32.3.38.34.41.4.45.47.41.39.75.75.88.88,0,0-.08-.23-.08-.19-.06-.17,0-.15-.06-.21-.08-.24-.09-.3-.11-.34-.13-.4-.15-.43-.15-.49-.19-.53-.09-.28-.15-.4L36,22.19l-.21-.58Zm0,0,10.9,4.32-.26.07-.26,0-.28,0-.28-.06-.3-.09-.28-.13-.24-.13-.23-.17-.21-.21L44,24.52l-.21-.28-.21-.32-.43-.81-.39-.88-.34-1-.28-1.07-.11-.53L42,19.16l-.06-.49,0-.43,0-.41v-.38l0-.36.06-.32.09-.24.15-.21.19-.19.26-.15.32-.09.32,0,.32.06.32.11.32.19.32.24.28.3.24.36.34.62.34.7.3.77.3.83.28.88.24.92.21,1,.19,1,0,.38v.32l-.06.28-.09.24-.24.26-.32.19Zm0,0-4.38-9.79-.24.07-.24.06-.21,0-.21,0-.21-.09-.17-.15-.17-.19-.17-.23-.15-.26-.11-.32-.09-.34-.08-.38,0-.39v-.34l0-.3.08-.26.09-.24.13-.19.21-.15.26-.15.26-.09.23-.06.23,0,.19,0,.19.07.19.13.17.19.17.24.19.32.13.34.11.34.06.36,0,.34v.32l-.06.32-.09.28-.11.26-.15.21-.19.17-.21.13Zm0,0,11,1.2.45-.88.32-.6.3-.51.26-.45.23-.36.23-.32.21-.26.23-.23.21-.21.21-.15.23-.13.23-.11.24-.08.38-.07.36,0,.28.06.26.11.23.19.21.26.19.34.17.43.08.21.08.26.09.32.08.38.24,1,.28.92.17.47.17.41.17.38.17.32.24.36.26.34.09.15.09.11.06.11,0,.07,0,.15-.08.13-.15.19-.17.17-.21.19-.24.17-.24.17-.23.13-.23.09-.21.07-.32.06-.34,0-.34-.06-.32-.09-.32-.15-.32-.19L57,20.49l-.28-.28-.24-.32-.23-.34-.21-.4-.17-.41-.09-.3-.09-.34-.08-.36-.08-.39-.06,0-.15.3-.15.24-.11.23-.11.21-.21.34-.19.34-.39.79-.36.73-.32.7-.28.66L53,22.3l-.21.4-.15.23-.21.19-.23.13-.24.09-.36.06h-.34l-.34-.07-.32-.15L50.31,23l-.24-.24-.21-.3-.17-.36-.08-.24-.06-.28-.08-.32-.06-.34-.09-.73-.08-.79,0-.85,0-.88,0-.86.06-.85.08-.64.13-.6.19-.53.23-.49.21-.26.24-.21.3-.17.34-.13.28-.06h.26l.24.06L52,13l.19.15.17.21.15.26.13.3.09.26.08.28.08.34.08.34.06.39.06.41.06.45,0,.47Zm0,0,11,3.61-.26,0-.26-.06-.24-.09-.24-.15-.23-.21-.21-.19-.17-.23-.13-.23-.11-.24-.09-.28-.08-.34-.06-.36L62,17.21l0-1,.11-1,.19-1.07.13-.53.13-.51.15-.45.15-.43.17-.39.17-.34.19-.32.19-.28.19-.19.23-.15.26-.09.3-.06h.34l.32.09.28.13.24.23.23.28.17.32.13.36.08.43.06.68v.75l0,.83-.09.86-.13.9-.17.92-.21,1-.26,1-.13.36-.13.32-.17.24-.21.19-.15.09-.17.06-.38.08Zm0,0M64.37,10H64.1l-.24,0-.21-.07-.17-.11-.15-.15-.09-.19-.09-.24,0-.26,0-.3,0-.32.06-.34.11-.38.13-.38.13-.32.17-.26.17-.23.21-.19.19-.13L64.52,6l.32-.06h.28l.24,0,.21.06.17.09.13.13.11.19.09.23,0,.28,0,.36v.36L66.08,8,66,8.34l-.11.32-.15.3-.17.26-.21.24-.23.21-.24.15-.24.09-.24.06Zm0,0,8.57,7,.28-.15.23-.13.21-.15.17-.15.34-.34.28-.36.26-.38.23-.41.3-.6.23-.66.19-.66.08-.64v-.24l0-.19-.09-.11-.11,0-.09,0-.13.06-.13.11-.15.15-.17.19-.19.24-.19.28-.23.34-.49.85-.41.86-.17.41-.11.39-.09.36,0,.32v.26Zm0,0,0,.34,0,.15.06.13.07.11.09.09.26.13.36.06H74l.26,0,.26-.06.3-.09.3-.11.34-.13.34-.17.38-.19.39-.21.32-.15.26-.08.17,0,.19,0,.17,0L78,17l.13.09.09.09.06.08v.09l0,.09-.07.11-.11.11-.17.13-.71.51-.83.49L76,19l-.41.21-.81.34-.79.26-.79.19-.38.07-.36,0-.34,0h-.3l-.36,0-.36-.06L70.76,20l-.3-.09-.28-.13-.24-.13-.24-.17-.23-.19-.19-.21-.17-.23L69,18.62l-.09-.24-.09-.26,0-.26,0-.28v-.3l.08-.49.13-.51.19-.54.24-.56.3-.56L70,14l.4-.53.41-.51.54-.54L72,12l.64-.45.7-.38.43-.21.45-.17.41-.15L75,10.5l.39-.08.41-.06.39,0h.39l.53.07.47.15.39.23.32.28.26.36.17.39.07.47v.51l-.07.43-.13.41-.19.43-.26.45-.32.43-.38.41L77,15.8l-.49.4-.43.3-.43.28-.41.23-.41.19-.38.15-.38.11-.34.06h-.3l-.26,0Zm0,0,20,4-4.32,1.58-.39.13-.34.09-.3.07-.24,0h-.43l-.43-.09L86.13,23l-.24-.19-.21-.23-.15-.28-.09-.3,0-.32.06-.3.11-.32.24-.39.32-.41.21-.23.28-.28.34-.32.39-.36.15-.15.15-.11.13-.11.09-.09,0-.06-1.54.62-1.54.68-.62.26-.53.23-.49.19-.39.15-.34.11-.32.09-.3.06-.26.06-.24,0h-.23l-.21,0-.17-.06-.32-.15-.26-.21-.19-.24-.11-.3-.06-.34,0-.36.09-.38.17-.41.15-.28.21-.3.26-.34.32-.36.38-.39.41-.43.47-.45.53-.49.47-.41.45-.38.41-.36.38-.3.34-.26.3-.23.26-.19.24-.15.3-.15.3-.13.28-.09.28-.06.28,0h.26l.26,0,.24.08.28.13.23.13.21.17.15.19.11.19,0,.19v.21l-.08.19-.09.19-.13.21-.17.23-.19.23-.24.26-.24.26-.3.28-.32.3-.53.49-.58.56,0,.06.17-.06.17-.08L86.8,17l.54-.24.64-.28.56-.26.53-.24.49-.21.45-.19.41-.17.38-.13.34-.11.28-.09.36-.09.32-.07.32-.06.28,0,.28,0,.26,0,.23.06.23.06.17.08.17.11.13.15.13.15.11.17.08.21.06.19,0,.23v.23l0,.21-.06.21-.09.21-.07.11-.11.15-.15.19-.19.23-.24.24-.26.28-.32.3-.36.36-.28.26-.21.21-.17.15-.15.13,0,.06.21-.06.19-.08.38-.13.21-.06.19-.06.13,0,.17-.06.21-.07.24-.09.28-.09.34-.11.36-.13.41-.15.54-.23.47-.17.39-.13L97,18l.28,0h.26l.24,0L98,18l.3.15.24.17.17.23.11.24.06.28,0,.32-.09.36-.17.38-.15.28-.19.34-.26.4-.32.47-.34.53-.3.47-.26.41-.23.36-.19.3-.13.26-.11.21-.09.15-.09.24-.11.28-.13.34-.11.36-.09.41-.11.45-.06.26-.06.24-.06.21-.06.17-.15.13-.19.11-.24.08-.28,0-.3,0-.28,0-.3-.06-.28-.09-.41-.21L92.31,27l-.3-.38-.26-.47-.15-.43-.07-.41,0-.41.09-.47.07-.26.11-.3.15-.32.15-.36.07-.13.09-.17.11-.21.13-.23.15-.26.17-.3.19-.32.21-.36,0,0Zm0,0,4.42,7.46-.17-.17L97,28.42l-.09-.23-.06-.26v-.28l0-.28.06-.24.09-.24.13-.24.17-.26.21-.28.24-.3.32-.34.36-.32.38-.32.41-.34.43-.32.47-.32.49-.32.53-.32.53-.3.49-.26.47-.24.47-.21.43-.17.41-.15.38-.11.38-.07.28,0,.28,0,.26.08.26.15.23.21.17.24.07.28V23l-.07.32-.13.34-.23.34-.28.36-.53.51-.6.54-.68.55-.77.56-.85.56-.88.56-.92.54-1,.53-.38.19-.36.13-.32.08H98L97.68,29l-.34-.19Zm0,0M106,21.45l-.19-.17-.13-.17-.07-.17,0-.19,0-.21.07-.19.13-.23.17-.21.24-.23.28-.21.32-.21.38-.21.38-.19.38-.13.34-.09.3-.06.3,0,.24,0,.24.09.26.17.21.15.15.17.09.17,0,.19,0,.17-.06.21-.13.21-.19.23-.28.26-.3.24-.32.23-.34.19-.36.17-.34.11-.34.08-.34,0h-.32l-.3,0-.24-.09-.23-.11Zm0,0-4.72,10.41-.17-.17-.11-.15-.09-.15,0-.15,0-.13,0-.13.07-.11.11-.11.09-.08.15-.08.17-.09.19-.09.4-.17.32-.11.39-.11.34-.08.28,0h.23l.24,0,.26.06.28.09.32.13.3.15.26.17.23.15.21.17.11.11.08.13,0,.11v.13l0,.11-.08.13-.09.11-.15.13-.34.24-.4.23-.49.21-.54.21-.3.09-.24,0-.26,0-.32-.11-.45-.21-.39-.21-.32-.21Zm0,0,8,3.44-.23.09-.21.11-.3.15-.47.23-.39.15-.34.09-.3,0-.32,0-.38-.06-.54-.13-.45-.19-.36-.24-.3-.28L104.5,35l-.09-.26v-.24l.07-.26.17-.26.26-.26.34-.28.43-.28.41-.23.47-.24.54-.26.58-.26.6-.26.6-.23.56-.19.53-.19.32-.08.09-.06.19-.06.75-.23.64-.17.56-.13.49-.09.41,0,.4,0,.38,0,.36.06.26.09.24.11.21.17.19.19.11.15.06.15,0,.15,0,.15-.06.17-.07.15-.13.15-.17.17.23,0,.23,0,.24,0,.23,0,.17,0,.13,0,.21.09.15.15.11.19,0,.19,0,.21-.09.23-.17.23-.24.23-.32.24-.38.24-.45.26-.47.24-.49.21-.49.19-.47.15-.45.13-.43.08-.38.06-.34,0-.28,0-.21-.06-.13-.11,0-.08,0-.09.06-.11.09-.11.15-.13.19-.15.24-.17.28-.19.3-.19.26-.17.23-.17.17-.15.26-.28.09-.13.06-.13-.21,0-.24.08-.3.09-.32.13-.36.17-.41.21-.43.23-.49.26-.28.15-.26.13-.23.11-.21.11-.17.09-.15.08-.11.06Zm0,0M114.35,45l-.23-.11-.08,0-.17-.09-.24-.15-.36-.19-.73-.41-.66-.36-.58-.34-.51-.3-.43-.26-.39-.26-.32-.23-.28-.23-.23-.21L109,41.6l-.13-.17-.09-.17-.07-.26,0-.24.06-.24.15-.24.21-.23.26-.19.32-.17.38-.15.71-.21.79-.17.85-.13.94-.13,1-.09,1-.06,1,0,1,0,.53,0,.49.06.45.06.39.09.36.13.32.13.26.17.23.19.28.32.23.41.09.3,0,.3,0,.26-.11.26-.17.24-.23.21-.28.17-.32.13-.53.13-.58.06H118l-.39,0-.43,0-.38,0-.56,0-.51,0-.45,0-.38,0h-.32l-.26,0-.21,0-.13,0-.11.06-.08.06,0,.06,0,.08.06.08.07.08.11.08.15.08.21.09.26.11.32.11.39.13.28.09.34.11.38.15.41.17.56.23.53.19.71.32.62.28.53.26.43.24.34.23.28.23.19.21.13.21.06.19,0,.19-.07.17-.11.17-.19.15-.24.15-.3.13-.36.13-.19.06-.26.08-.34.08-.39.09-.81.19-.71.19-.68.19-.58.19-.41.15-.21.08-.26.08-.34.15-.3.11-.26.11-.23.09-.26.11-.19.08-.11.06,0,0-.19,0-.19,0-.23-.13-.23-.19-.23-.24-.21-.26-.17-.3-.17-.34-.11-.3-.06-.3,0-.28,0-.28.07-.26.13-.26.15-.23.21-.21.26-.21.3-.17.34-.17.38-.13.15,0,.21-.06.3-.08Z"/></g></g></svg>