<svg xmlns="http://www.w3.org/2000/svg" viewBox="0 0 88 88"><defs><style>.cls-1{fill:#2d2d2d;}.cls-2{fill:#a4ab44;}.cls-3{fill:#e8daca;}</style></defs><title>production-3</title><g id="Слой_2" data-name="Слой 2"><g id="Layer_1" data-name="Layer 1"><rect class="cls-1" width="88" height="88" rx="12" ry="12"/><path class="cls-2" d="M44.53,45.94s-15.12-13-1.36-35.15c0,0,22.17,15.29,4.26,34.56,0,0-2.93-12.92-1.92-18.78C45.52,26.58,42.09,39.65,44.53,45.94Z"/><path class="cls-2" d="M39.53,47.91S22.59,53.26,12.28,32.46c0,0,22-9.62,28.17,13,0,0-11.16-3.83-15.12-7.35C25.33,38.09,33.62,46.81,39.53,47.91Z"/><path class="cls-2" d="M36.61,53.37S31.2,63.52,17,58.58c0,0,5.8-14.4,18.9-6.76,0,0-6.9,3.28-10.32,3.45C25.59,55.27,33.38,55.54,36.61,53.37Z"/><path class="cls-2" d="M57,52.67s6.54-4.75,14,2.74c0,0-8.09,7.31-14-1.54,0,0,5.37,0,7.58,1C64.53,54.86,59.7,52.29,57,52.67Z"/><path class="cls-2" d="M49.52,47.87s1.83-17.41,24.67-18.54c0,0,.05,23.63-22.8,20.34,0,0,7.85-8.57,12.58-10.76C64,38.9,52.84,43,49.52,47.87Z"/><path class="cls-3" d="M52.25,77.87s-2.76-11.22-.75-18,5-8.16,4.69-9.19-1.75-.57-2.24.39-2.47,3-4.24,2.64-2.08-6.8-3.36-7.46-.9,2.33-.46,4.92-2,1.13-3.48-2S40,47,39.83,47.42s3.26,6,3,6.26-4.63-4.37-5.07-4.24-1.19.48-.16,1.94,4.33,3.91,4.11,4.32-2.95-1.83-4-1.89S37.11,55,38.9,56.18s6.2,2.47,6.24,6.83S44,77.91,44,77.91"/></g></g></svg>