<svg xmlns="http://www.w3.org/2000/svg" viewBox="0 0 88 88"><defs><style>.cls-1{fill:#2d2d2d;}.cls-2{fill:#e8daca;}.cls-3{fill:#a4ab44;}</style></defs><title>production-4</title><g id="Слой_2" data-name="Слой 2"><g id="Layer_1" data-name="Layer 1"><rect class="cls-1" width="88" height="88" rx="12" ry="12"/><path class="cls-2" d="M69.11,63.86a40.43,40.43,0,0,0-10.86-9.62c-3.3-2.15-7.05-1.69-10.55-.29a9.33,9.33,0,0,1-6.32.34,28.35,28.35,0,0,0-8.31-.93,3.44,3.44,0,0,0-2.91,1.36c-.4.53,2.87,2.72,5.68,2.72-.52,1-9.6-1.16-10.8-1.07l-6.87-.88c-2.44-.2-2.44-1.12-4.83.24a.57.57,0,0,1-.3,0A3,3,0,0,0,10.19,57,1.65,1.65,0,0,0,10,58.73c.24.62.85.46,1.36.66a46.61,46.61,0,0,0,8.22,2.84c3,.73,5.84,1.63,8.8,2.3A13,13,0,0,1,32,65.62a13.59,13.59,0,0,0,7.51,1.6c3-.14,6.08,0,9.13,0C54,67.16,58,69.3,60.75,74l17.19,0C74.19,69.58,72.54,68.52,69.11,63.86Z"/><path class="cls-3" d="M42.68,47.67s-21.17-6.39-17.16-35c0,0,29.33,5.53,19.84,33.1,0,0-8.78-11.77-10.38-18.16C35,27.61,37.38,42.39,42.68,47.67Z"/><path class="cls-3" d="M44.85,43.52S39.48,26.26,60.68,15.87c0,0,9.7,22.39-13.32,28.59,0,0,3.95-11.33,7.54-15.35C54.9,29.12,46,37.52,44.85,43.52Z"/></g></g></svg>