<svg xmlns="http://www.w3.org/2000/svg" viewBox="0 0 91.48 91.48"><defs><style>.cls-1{fill:#2d2d2d;}.cls-2{fill:#607b3f;fill-rule:evenodd;}</style></defs><title>production-6</title><g id="Слой_2" data-name="Слой 2"><g id="Layer_1" data-name="Layer 1"><rect class="cls-1" width="91.48" height="91.48" rx="12.47" ry="12.47"/><path class="cls-2" d="M50.49,23.45v-.21a3.93,3.93,0,1,1,0,.21"/><path class="cls-2" d="M63.31,33.46l3.94,13.66a1.85,1.85,0,1,1-3.55,1L60.42,36.3c-.43-.51-.71-.46-1-.13l6,24.31L60,60.55a.47.47,0,0,0-.46.34V74a2.18,2.18,0,0,1-4.21,0l0-13.17a.5.5,0,0,0-1,0L54.06,74c-.5,2.18-3.89,2.23-4.27-.08,0-5.33,0-7.62,0-13a.42.42,0,0,0-.41-.41l-5.58-.09c2-7,4-17.17,6-24.17-.1-.51-.61-.52-1-.08L45.13,48.62c-1.23,1.69-3.92.93-3.62-.93l4.4-14.82c.48-1.74,2.73-3.19,4.75-3.3,4-.56,11.29-.91,12.66,3.89Z"/><path class="cls-2" d="M34.33,15.86A4.12,4.12,0,1,1,30.22,20a4.13,4.13,0,0,1,4.11-4.12ZM44.79,45.95h0v2.78a2,2,0,0,1-4.08-.23l-.15-16s-.12-.38-.37-.36a.38.38,0,0,0-.36.32l.32,40.65a2.44,2.44,0,1,1-4.89,0V53.61s-.46-.43-.62-.42-.64.28-.64.43c0,6.94,0,12.69,0,19.51,0,3.24-5.12,3.43-5.14,0l-.22-40.45a.5.5,0,0,0-.4-.38c-.3.08-.32.28-.32.35h0q0,7.94,0,15.87c0,2.67-4.2,2.7-4.34.13V45.5l0-14.67s.38-3,4.17-4.44c4.36-.1,12.76,0,12.76,0a5.4,5.4,0,0,1,4.2,4Z"/><path class="cls-2" d="M70.1,42v-.14a2.53,2.53,0,1,1,0,.14"/><path class="cls-2" d="M78.37,48.43l2.54,8.81a1.19,1.19,0,1,1-2.29.66L76.5,50.26c-.28-.33-.46-.3-.67-.08l3.88,15.68-3.5,0a.3.3,0,0,0-.3.22v8.45a1.4,1.4,0,0,1-2.71,0l0-8.49a.32.32,0,0,0-.62,0l-.16,8.47a1.41,1.41,0,0,1-2.75,0c0-3.44,0-4.92,0-8.35,0-.15-.11-.23-.26-.26l-3.6-.06c1.28-4.51,2.59-11.08,3.86-15.58-.06-.33-.39-.33-.65-.05l-2.35,8c-.79,1.09-2.53.6-2.34-.6L67.14,48a3.51,3.51,0,0,1,3.06-2.13c2.55-.36,7.28-.58,8.16,2.51"/><path class="cls-2" d="M17.6,36.24A2.72,2.72,0,1,1,14.9,39a2.72,2.72,0,0,1,2.71-2.71M24.5,56.07h0V57.9a1.35,1.35,0,0,1-2.69-.15l-.1-10.53s-.08-.25-.24-.23a.25.25,0,0,0-.24.21L21.45,74a1.61,1.61,0,1,1-3.22,0V61.12s-.3-.29-.41-.28-.42.19-.42.28c0,4.58,0,8.36,0,12.85A1.69,1.69,0,0,1,14,74l-.15-26.66a.33.33,0,0,0-.26-.25c-.2.05-.21.19-.21.23h0q0,5.23,0,10.46a1.44,1.44,0,0,1-2.86.09V46.1a4,4,0,0,1,2.75-2.92c2.87-.07,8.41,0,8.41,0a3.56,3.56,0,0,1,2.77,2.65Z"/></g></g></svg>