<svg xmlns="http://www.w3.org/2000/svg" viewBox="0 0 88 88"><defs><style>.cls-1{fill:#2d2d2d;}.cls-2{fill:#a4ab44;}.cls-3{fill:#607b3f;}</style></defs><title>production-1</title><g id="Слой_2" data-name="Слой 2"><g id="Layer_1" data-name="Layer 1"><rect class="cls-1" width="88" height="88" rx="12" ry="12"/><path class="cls-2" d="M31.51,32.43h3l1.3-6.05h2.92L35.49,41.57H32.57l1.63-7.64h-3l-1.62,7.64H26.66L29.6,27.76a4.53,4.53,0,0,0-2.84,4.45A2.82,2.82,0,0,0,27,33.59c-1.4,0-2.17-.51-2.17-2,0-2.7,3.74-5.28,7.13-5.28.28,0,.55,0,.81,0Z"/><path class="cls-2" d="M42.44,31.41,41,38.32a2.91,2.91,0,0,0-.08.65c0,.57.26.75.83.75.79,0,1.52-.77,1.83-1.79h.85c-1.16,3.31-3.17,3.76-4.27,3.76S38,41,38,39.25a6.63,6.63,0,0,1,.16-1.32l1.38-6.52Zm-.91-4.33a1.62,1.62,0,1,1,0,3.23,1.62,1.62,0,0,1,0-3.23Z"/><path class="cls-2" d="M53.3,31.41l-2,9.42a3.86,3.86,0,0,0,2.56-2.9h.85a4.9,4.9,0,0,1-3.6,3.8l-.3,1.46c-.61,2.9-2.31,3.45-3.66,3.45a2,2,0,0,1-2.27-2c0-1.71,1.79-2.56,3.31-3l.24-1.08A3.26,3.26,0,0,1,46,41.69c-1.38,0-2.7-.85-2.7-3.27,0-2.74,1.69-7.11,5.22-7.11,1.16,0,1.64.45,1.64,1v.12l.22-1.06ZM46.68,45.06c.43,0,.91-.61,1.18-1.81l.12-.59c-1,.39-2,.91-2,1.73A.69.69,0,0,0,46.68,45.06Zm-.39-6.93c0,1.56.65,1.59,1,1.59a2,2,0,0,0,1.63-1.59l1-4.81a.8.8,0,0,0-.83-.75C47.41,32.57,46.29,36.23,46.29,38.13Z"/><path class="cls-2" d="M58.95,33.18c-.67,0-1.22.71-1.52,1.63L56,41.57H53.06L56,27.76l3-.41-1.1,5.1a3.09,3.09,0,0,1,2.38-1.12,2.05,2.05,0,0,1,2.25,2.29c0,1.64-1,4.1-1,5.24,0,.51.2.85.81.85a1.24,1.24,0,0,0,.67-.12,2.16,2.16,0,0,1-2.23,2.09c-1.57,0-2.05-1.14-2.05-2.29,0-1.38.91-3.88.91-5.18C59.68,33.55,59.44,33.18,58.95,33.18Z"/><path class="cls-2" d="M19,57a6,6,0,0,0,0,.87,5.17,5.17,0,0,1,1.26-.18,2.56,2.56,0,0,1,1.63.55,14.63,14.63,0,0,0,2.5-8.1c0-2.36-.47-3.55-2.6-3.55-3.11,0-5.85,2-5.85,5.22a3.06,3.06,0,0,0,.2,1.1c-1.28,0-2-.47-2-1.71,0-2.84,3.9-5.54,8.18-5.54,3.55,0,4.81,2.17,4.81,5.2,0,2.86-1.18,7-3.88,9a3,3,0,0,0,2.54,1.64,3.81,3.81,0,0,0,.45,0c-.53,1.4-1.22,1.75-2.09,1.75-1.79,0-2.25-1.26-2.62-2.46a6.17,6.17,0,0,1-1.89.28C17.51,61,16,59.92,16,57c0-3.29,1.85-9.53,5.5-9.53a3.23,3.23,0,0,1,1.06.16C20.71,48.71,19,53.91,19,57Zm2,2.13a1.27,1.27,0,0,0-1.16-.69,2.18,2.18,0,0,0-.59.08c.18.53.49.83,1,.83A1.41,1.41,0,0,0,21,59.17Z"/><path class="cls-2" d="M36.64,50.76l-1.46,6.9a2.8,2.8,0,0,0-.08.65c0,.57.26.75.83.75.79,0,1.34-.77,1.64-1.79h.85c-1.16,3.31-3,3.76-4.08,3.76a1.89,1.89,0,0,1-2-1.93,3.35,3.35,0,0,1-3,1.93c-1.22,0-2.17-.73-2.17-2.44a6.68,6.68,0,0,1,.16-1.32l1.38-6.52h2.92l-1.46,6.9a2.91,2.91,0,0,0-.06.57c0,.47.16.83.61.83.79,0,1.32-.77,1.63-1.79l1.38-6.52Z"/><path class="cls-2" d="M47.32,50.76l-1.46,6.9a2.85,2.85,0,0,0-.08.65c0,.57.26.87.83.87.79,0,1.34-.89,1.65-1.91h.85C48,60.59,46.12,61,45,61a1.86,1.86,0,0,1-2-1.87A3.67,3.67,0,0,1,40,61c-1.38,0-2.7-.85-2.7-3.27,0-2.74,1.69-7.11,5.22-7.11,1.16,0,1.64.45,1.64,1v.14l.22-1.08Zm-7,6.72c0,1.56.65,1.58,1,1.58A2,2,0,0,0,43,57.28l1-4.59a.79.79,0,0,0-.83-.77C41.43,51.91,40.31,55.57,40.31,57.48Z"/><path class="cls-2" d="M53.43,46.7l-2.34,11a2.79,2.79,0,0,0-.08.65c0,.57.26.75.83.75.79,0,1.52-.77,1.83-1.79h.85C53.37,60.59,51.36,61,50.27,61s-2.17-.73-2.17-2.44a6.75,6.75,0,0,1,.16-1.32L50.43,47.1Z"/><path class="cls-2" d="M58,50.76l-1.46,6.9a2.8,2.8,0,0,0-.08.65c0,.57.26.75.83.75.79,0,1.52-.77,1.83-1.79H60C58.8,60.59,56.79,61,55.69,61s-2.17-.73-2.17-2.44a6.68,6.68,0,0,1,.16-1.32l1.38-6.52Zm-.91-4.33a1.63,1.63,0,0,1,1.63,1.63,1.61,1.61,0,0,1-1.63,1.6,1.59,1.59,0,0,1-1.6-1.6A1.61,1.61,0,0,1,57.07,46.43Z"/><path class="cls-2" d="M64.1,47.55l-.69,3.21h1.22l-.16.81H63.25l-1.3,6.09a2.8,2.8,0,0,0-.08.65c0,.57.26.75.83.75.79,0,1.52-.77,1.83-1.79h.85C64.22,60.59,62.21,61,61.11,61s-2.17-.73-2.17-2.44a6.75,6.75,0,0,1,.16-1.32l1.22-5.71h-.67l.16-.81h.67l.61-2.8Z"/><path class="cls-2" d="M68.83,50.76l-1.46,6.9a2.1,2.1,0,0,0-.06.51c0,.47.14.89.61.89.79,0,1.32-.77,1.63-1.79l1.38-6.52h2.94L71.39,62.54C70.78,65.44,69,66,67.69,66a2.28,2.28,0,0,1-2.4-2.2c0-1.89,1.58-2.48,3.51-3l.2-.89A3.14,3.14,0,0,1,66.54,61c-1.22,0-2.17-.73-2.17-2.44a6.75,6.75,0,0,1,.16-1.32l1.38-6.52ZM67.22,64.18c.41,0,.94-.39,1.2-1.58l.24-1.2c-1.28.43-2.25,1-2.25,2.11A.82.82,0,0,0,67.22,64.18Z"/><polygon class="cls-3" points="43.84 72.56 45.3 75.53 48.58 76 46.21 78.31 46.77 81.57 43.84 80.03 40.91 81.57 41.47 78.31 39.1 76 42.38 75.53 43.84 72.56"/><polygon class="cls-3" points="34.13 72.56 34.97 74.27 36.85 74.55 35.49 75.88 35.81 77.76 34.13 76.87 32.44 77.76 32.76 75.88 31.39 74.55 33.28 74.27 34.13 72.56"/><polygon class="cls-3" points="53.55 72.56 54.4 74.27 56.28 74.55 54.92 75.88 55.24 77.76 53.55 76.87 51.87 77.76 52.19 75.88 50.82 74.55 52.71 74.27 53.55 72.56"/><polygon class="cls-3" points="43.84 6.43 45.3 9.39 48.58 9.87 46.21 12.18 46.77 15.44 43.84 13.9 40.91 15.44 41.47 12.18 39.1 9.87 42.38 9.39 43.84 6.43"/><polygon class="cls-3" points="34.13 10.24 34.97 11.96 36.85 12.23 35.49 13.56 35.81 15.44 34.13 14.55 32.44 15.44 32.76 13.56 31.39 12.23 33.28 11.96 34.13 10.24"/><polygon class="cls-3" points="53.55 10.24 54.4 11.96 56.28 12.23 54.92 13.56 55.24 15.44 53.55 14.55 51.87 15.44 52.19 13.56 50.82 12.23 52.71 11.96 53.55 10.24"/></g></g></svg>