<svg xmlns="http://www.w3.org/2000/svg" viewBox="0 0 88 88"><defs><style>.cls-1{fill:#2d2d2d;}.cls-2{fill:#607b3f;}</style></defs><title>production-2</title><g id="Слой_2" data-name="Слой 2"><g id="Layer_1" data-name="Layer 1"><rect class="cls-1" width="88" height="88" rx="12" ry="12"/><path class="cls-2" d="M43.84,54.08c-6.26,6.12-5.19,18.48-4.1,20.28-.53,2.12-2.46,1-2.46,1A64.25,64.25,0,0,1,36.57,67c-.48-1.28-1.31-5.19-3.44-8.06-2.74,6.68-10.37,2-12.23-3.63A46.67,46.67,0,0,0,16.39,46s21-1.91,17.14,11.81c0,.09-.05.14-.08.22a24.73,24.73,0,0,0-9.13-7,29.87,29.87,0,0,1,8.82,7.95,8.51,8.51,0,0,0,.32-.91,23.13,23.13,0,0,1,3.63,6.35c.34-4.3,1.74-7.68,5.33-11.64C42.4,52.79,43.79,54,43.84,54.08Zm0,0h0ZM64.7,17.46c-6.54,10.7-9.51,10.1-16.64,13.07-6.93,2.89-14.88,15.28-5.62,22.21,4.09-4.57,4.74-5,7.19-6.91-2-3.83,1.19-11.21,1.19-11.21A21.3,21.3,0,0,0,51,44.7a39.19,39.19,0,0,0,6.29-5.13c-1.17-3.85,1.37-8,1.37-8a16,16,0,0,0-.09,6.34,39.58,39.58,0,0,0,5.07-10A20.11,20.11,0,0,1,59.89,38.8a14.08,14.08,0,0,0,5.84-1.61s-3.24,3.36-7.16,3.24c-1.41,2-6.1,5.35-6.37,5.56a19.34,19.34,0,0,0,9.65-.2s-7,3.06-11,1.45a52.7,52.7,0,0,0-7,6.84c2.86,2.35,11.57,8.07,20-2C70.69,43.84,71.86,28.06,64.7,17.46Z"/></g></g></svg>